<svg width="91" height="16" viewBox="0 0 91 16" fill="none" xmlns="http://www.w3.org/2000/svg">
<g clip-path="url(#clip0_1802_6320)">
<path d="M8.00002 1.33334C5.20002 1.33334 2.66669 3.48001 2.66669 6.80001C2.66669 9.01334 4.44669 11.6333 8.00002 14.6667C11.5534 11.6333 13.3334 9.01334 13.3334 6.80001C13.3334 3.48001 10.8 1.33334 8.00002 1.33334ZM8.00002 8.00001C7.26669 8.00001 6.66669 7.40001 6.66669 6.66668C6.66669 5.93334 7.26669 5.33334 8.00002 5.33334C8.73335 5.33334 9.33335 5.93334 9.33335 6.66668C9.33335 7.40001 8.73335 8.00001 8.00002 8.00001Z" fill="white"/>
</g>
<path d="M25.386 13V3.2H26.87L31.168 10.354H30.37L34.598 3.2H36.082L36.11 13H34.374L34.36 5.902H34.724L31.14 11.88H30.328L26.688 5.902H27.108V13H25.386ZM43.4025 13.14C42.6371 13.14 41.9325 13.014 41.2885 12.762C40.6445 12.51 40.0845 12.16 39.6085 11.712C39.1325 11.2547 38.7638 10.7227 38.5025 10.116C38.2411 9.5 38.1105 8.828 38.1105 8.1C38.1105 7.372 38.2411 6.70467 38.5025 6.098C38.7638 5.482 39.1325 4.95 39.6085 4.502C40.0845 4.04467 40.6445 3.69 41.2885 3.438C41.9325 3.186 42.6325 3.06 43.3885 3.06C44.1538 3.06 44.8538 3.186 45.4885 3.438C46.1325 3.69 46.6925 4.04467 47.1685 4.502C47.6445 4.95 48.0131 5.482 48.2745 6.098C48.5358 6.70467 48.6665 7.372 48.6665 8.1C48.6665 8.828 48.5358 9.5 48.2745 10.116C48.0131 10.732 47.6445 11.264 47.1685 11.712C46.6925 12.16 46.1325 12.51 45.4885 12.762C44.8538 13.014 44.1585 13.14 43.4025 13.14ZM43.3885 11.544C43.8831 11.544 44.3405 11.46 44.7605 11.292C45.1805 11.124 45.5445 10.886 45.8525 10.578C46.1605 10.2607 46.3985 9.89667 46.5665 9.486C46.7438 9.066 46.8325 8.604 46.8325 8.1C46.8325 7.596 46.7438 7.13867 46.5665 6.728C46.3985 6.308 46.1605 5.944 45.8525 5.636C45.5445 5.31867 45.1805 5.076 44.7605 4.908C44.3405 4.74 43.8831 4.656 43.3885 4.656C42.8938 4.656 42.4365 4.74 42.0165 4.908C41.6058 5.076 41.2418 5.31867 40.9245 5.636C40.6165 5.944 40.3738 6.308 40.1965 6.728C40.0285 7.13867 39.9445 7.596 39.9445 8.1C39.9445 8.59467 40.0285 9.052 40.1965 9.472C40.3738 9.892 40.6165 10.2607 40.9245 10.578C41.2325 10.886 41.5965 11.124 42.0165 11.292C42.4365 11.46 42.8938 11.544 43.3885 11.544ZM55.1866 13.14C54.44 13.14 53.7446 13.0187 53.1006 12.776C52.466 12.524 51.9106 12.174 51.4346 11.726C50.968 11.2687 50.604 10.732 50.3426 10.116C50.0813 9.5 49.9506 8.828 49.9506 8.1C49.9506 7.372 50.0813 6.7 50.3426 6.084C50.604 5.468 50.9726 4.936 51.4486 4.488C51.9246 4.03067 52.48 3.68067 53.1146 3.438C53.7493 3.186 54.4446 3.06 55.2006 3.06C56.0033 3.06 56.736 3.2 57.3986 3.48C58.0613 3.75067 58.6213 4.15667 59.0786 4.698L57.9026 5.804C57.548 5.42133 57.1513 5.13667 56.7126 4.95C56.274 4.754 55.798 4.656 55.2846 4.656C54.7713 4.656 54.3 4.74 53.8706 4.908C53.4506 5.076 53.082 5.314 52.7646 5.622C52.4566 5.93 52.214 6.294 52.0366 6.714C51.8686 7.134 51.7846 7.596 51.7846 8.1C51.7846 8.604 51.8686 9.066 52.0366 9.486C52.214 9.906 52.4566 10.27 52.7646 10.578C53.082 10.886 53.4506 11.124 53.8706 11.292C54.3 11.46 54.7713 11.544 55.2846 11.544C55.798 11.544 56.274 11.4507 56.7126 11.264C57.1513 11.068 57.548 10.774 57.9026 10.382L59.0786 11.502C58.6213 12.034 58.0613 12.44 57.3986 12.72C56.736 13 55.9986 13.14 55.1866 13.14ZM67.2505 13L63.9325 8.226L65.4025 7.316L69.3085 13H67.2505ZM60.7685 13V3.2H62.5605V13H60.7685ZM62.0145 8.87V7.302H65.3185V8.87H62.0145ZM65.5705 8.31L63.9045 8.086L67.2505 3.2H69.1825L65.5705 8.31ZM70.5579 13V3.2H74.9399C76.0412 3.2 76.8999 3.41933 77.5159 3.858C78.1319 4.28733 78.4399 4.908 78.4399 5.72C78.4399 6.52267 78.1459 7.14333 77.5579 7.582C76.9699 8.01133 76.1952 8.226 75.2339 8.226L75.4859 7.722C76.5779 7.722 77.4225 7.94133 78.0199 8.38C78.6172 8.81867 78.9159 9.45333 78.9159 10.284C78.9159 11.1333 78.6032 11.8007 77.9779 12.286C77.3525 12.762 76.4285 13 75.2059 13H70.5579ZM72.3499 11.6H75.1499C75.7845 11.6 76.2652 11.4833 76.5919 11.25C76.9185 11.0073 77.0819 10.6387 77.0819 10.144C77.0819 9.64933 76.9185 9.29 76.5919 9.066C76.2652 8.83267 75.7845 8.716 75.1499 8.716H72.3499V11.6ZM72.3499 7.386H74.7859C75.3739 7.386 75.8219 7.26933 76.1299 7.036C76.4379 6.79333 76.5919 6.448 76.5919 6C76.5919 5.53333 76.4379 5.18333 76.1299 4.95C75.8219 4.71667 75.3739 4.6 74.7859 4.6H72.3499V7.386ZM79.7432 13L84.1532 3.2H85.9452L90.3692 13H88.4652L84.6712 4.166H85.3992L81.6192 13H79.7432ZM81.7732 10.732L82.2632 9.304H87.5552L88.0452 10.732H81.7732Z" fill="white"/>
<defs>
<clipPath id="clip0_1802_6320">
<rect width="16" height="16" fill="white"/>
</clipPath>
</defs>
</svg>
